<svg preserveAspectRatio="none" overflow="visible" style="display: block;" width="16" height="16" viewBox="0 0 16 16" fill="none" xmlns="http://www.w3.org/2000/svg">
<g id="close">
<path id="icon" d="M7.05719 8.00004L3.43096 4.37381C3.30079 4.24364 3.30079 4.03258 3.43096 3.90241L3.90237 3.43101C4.03254 3.30083 4.2436 3.30083 4.37377 3.43101L8 7.05723L11.6262 3.43101C11.7564 3.30083 11.9675 3.30083 12.0976 3.43101L12.569 3.90241C12.6992 4.03258 12.6992 4.24364 12.569 4.37381L8.94281 8.00004L12.569 11.6263C12.6992 11.7564 12.6992 11.9675 12.569 12.0977L12.0976 12.5691C11.9675 12.6993 11.7564 12.6993 11.6262 12.5691L8 8.94285L4.37377 12.5691C4.2436 12.6993 4.03254 12.6993 3.90237 12.5691L3.43096 12.0977C3.30079 11.9675 3.30079 11.7564 3.43096 11.6263L7.05719 8.00004Z" fill="#6C6D6F"/>
</g>
</svg>
