<svg xmlns="http://www.w3.org/2000/svg" width="1400" height="1020" viewBox="0 0 1400 1020" role="img"><rect x="0" y="0" width="1400" height="1020" rx="0" fill="#ffffff"/><rect x="0" y="0" width="1400" height="30" rx="0" fill="#dfe1e5"/><circle cx="16" cy="15" r="5" fill="#ec6b5e"/><circle cx="31" cy="15" r="5" fill="#f4bf4f"/><circle cx="46" cy="15" r="5" fill="#61c453"/><rect x="70" y="6" width="190" height="24" rx="6" fill="#ffffff"/><rect x="80" y="14" width="90" height="7" rx="3.5" fill="#c9ced1"/><rect x="0" y="30" width="1400" height="28" rx="0" fill="#ffffff"/><rect x="14" y="40" width="8" height="8" rx="2" fill="#c9ced1"/><rect x="30" y="40" width="8" height="8" rx="2" fill="#c9ced1"/><rect x="50" y="37" width="1300" height="15" rx="7.5" fill="#f1f3f4"/><rect x="60" y="42" width="70" height="5" rx="2.5" fill="#c9ced1"/><rect x="0" y="58" width="168" height="962" rx="0" fill="#ffffff"/><rect x="167" y="58" width="1" height="962" rx="0" fill="#e0e1e4"/><rect x="22" y="82" width="98" height="16" rx="4" fill="#26545a" opacity="0.85"/><rect x="10" y="121" width="148" height="28" rx="5" fill="#26545a" opacity="0.14"/><rect x="20" y="128" width="12" height="12" rx="3" fill="#26545a"/><rect x="40" y="131" width="88.02" height="7" rx="3.5" fill="#26545a"/><rect x="20" y="162" width="12" height="12" rx="3" fill="#c9ced1"/><rect x="40" y="165" width="93.35" height="7" rx="3.5" fill="#c9ced1"/><rect x="20" y="196" width="12" height="12" rx="3" fill="#c9ced1"/><rect x="40" y="199" width="89.02" height="7" rx="3.5" fill="#c9ced1"/><rect x="20" y="230" width="12" height="12" rx="3" fill="#c9ced1"/><rect x="40" y="233" width="60.74" height="7" rx="3.5" fill="#c9ced1"/><rect x="20" y="264" width="12" height="12" rx="3" fill="#c9ced1"/><rect x="40" y="267" width="35.83" height="7" rx="3.5" fill="#c9ced1"/><rect x="168" y="58" width="1232" height="962" rx="0" fill="#f9fafb"/><rect x="168" y="58" width="1232" height="52" rx="0" fill="#ffffff"/><rect x="168" y="109" width="1232" height="1" rx="0" fill="#e0e1e4"/><rect x="192" y="78" width="174.83" height="12" rx="4" fill="#0a1516" opacity="0.82"/><circle cx="1366" cy="84" r="11" fill="#26545a" opacity="0.9"/><rect x="192" y="130" width="385.33" height="92" rx="6" fill="#cde3f3"/><rect x="206" y="146" width="231.2" height="8" rx="4" fill="#0a1516" opacity="0.5"/><rect x="206" y="162" width="300.56" height="5" rx="2.5" fill="#0a1516" opacity="0.25"/><rect x="206" y="172" width="192.67" height="5" rx="2.5" fill="#0a1516" opacity="0.25"/><rect x="206" y="190" width="62" height="20" rx="4" fill="#ffffff"/><rect x="591.33" y="130" width="385.33" height="92" rx="6" fill="#d4eccd"/><rect x="605.33" y="146" width="231.2" height="8" rx="4" fill="#0a1516" opacity="0.5"/><rect x="605.33" y="162" width="300.56" height="5" rx="2.5" fill="#0a1516" opacity="0.25"/><rect x="605.33" y="172" width="192.67" height="5" rx="2.5" fill="#0a1516" opacity="0.25"/><rect x="605.33" y="190" width="62" height="20" rx="4" fill="#ffffff"/><rect x="990.67" y="130" width="385.33" height="92" rx="6" fill="#f8eed4"/><rect x="1004.67" y="146" width="231.2" height="8" rx="4" fill="#0a1516" opacity="0.5"/><rect x="1004.67" y="162" width="300.56" height="5" rx="2.5" fill="#0a1516" opacity="0.25"/><rect x="1004.67" y="172" width="192.67" height="5" rx="2.5" fill="#0a1516" opacity="0.25"/><rect x="1004.67" y="190" width="62" height="20" rx="4" fill="#ffffff"/><rect x="192" y="240" width="1184" height="190" rx="6" fill="#ffffff"/><rect x="192" y="240" width="1184" height="190" rx="6" fill="none"/><rect x="208" y="258" width="100" height="8" rx="4" fill="#0a1516" opacity="0.6"/><rect x="212" y="280" width="1144" height="1" rx="0" fill="#e0e1e4"/><rect x="212" y="321.33" width="1144" height="1" rx="0" fill="#e0e1e4"/><rect x="212" y="362.67" width="1144" height="1" rx="0" fill="#e0e1e4"/><rect x="212" y="404" width="1144" height="1" rx="0" fill="#e0e1e4"/><path d="M 212 323.46 C 283.5 323.46, 283.5 336.26, 355 336.26 C 426.5 336.26, 426.5 343.55, 498 343.55 C 569.5 343.55, 569.5 317.43, 641 317.43 C 712.5 317.43, 712.5 329.41, 784 329.41 C 855.5 329.41, 855.5 315.18, 927 315.18 C 998.5 315.18, 998.5 372.58, 1070 372.58 C 1141.5 372.58, 1141.5 342.6, 1213 342.6 C 1284.5 342.6, 1284.5 378.41, 1356 378.41 L 1356 404 L 212 404 Z" fill="#26545a" opacity="0.09"/><path d="M 212 323.46 C 283.5 323.46, 283.5 336.26, 355 336.26 C 426.5 336.26, 426.5 343.55, 498 343.55 C 569.5 343.55, 569.5 317.43, 641 317.43 C 712.5 317.43, 712.5 329.41, 784 329.41 C 855.5 329.41, 855.5 315.18, 927 315.18 C 998.5 315.18, 998.5 372.58, 1070 372.58 C 1141.5 372.58, 1141.5 342.6, 1213 342.6 C 1284.5 342.6, 1284.5 378.41, 1356 378.41" fill="none" stroke="#0a1516" stroke-width="2" stroke-linecap="round"/><rect x="192" y="448" width="1184" height="38" rx="5" fill="#ffffff"/><circle cx="212" cy="467" r="9" fill="#c9ced1" opacity="0.7"/><rect x="230" y="460" width="98.66" height="6" rx="3" fill="#0a1516" opacity="0.45"/><rect x="230" y="472" width="57.62" height="5" rx="3" fill="#0a1516" opacity="0.2"/><rect x="1308" y="461" width="44" height="14" rx="7" fill="#26545a" opacity="0.16"/><rect x="192" y="494" width="1184" height="38" rx="5" fill="#ffffff"/><circle cx="212" cy="513" r="9" fill="#c9ced1" opacity="0.7"/><rect x="230" y="506" width="139.33" height="6" rx="3" fill="#0a1516" opacity="0.45"/><rect x="230" y="518" width="74.62" height="5" rx="3" fill="#0a1516" opacity="0.2"/><rect x="1308" y="507" width="44" height="14" rx="7" fill="#26545a" opacity="0.16"/><rect x="192" y="540" width="1184" height="38" rx="5" fill="#ffffff"/><circle cx="212" cy="559" r="9" fill="#c9ced1" opacity="0.7"/><rect x="230" y="552" width="150.28" height="6" rx="3" fill="#0a1516" opacity="0.45"/><rect x="230" y="564" width="80.13" height="5" rx="3" fill="#0a1516" opacity="0.2"/><rect x="1308" y="553" width="44" height="14" rx="7" fill="#26545a" opacity="0.16"/><rect x="192" y="586" width="1184" height="38" rx="5" fill="#ffffff"/><circle cx="212" cy="605" r="9" fill="#c9ced1" opacity="0.7"/><rect x="230" y="598" width="70.26" height="6" rx="3" fill="#0a1516" opacity="0.45"/><rect x="230" y="610" width="51.89" height="5" rx="3" fill="#0a1516" opacity="0.2"/><rect x="1308" y="599" width="44" height="14" rx="7" fill="#26545a" opacity="0.16"/><rect x="192" y="632" width="1184" height="38" rx="5" fill="#ffffff"/><circle cx="212" cy="651" r="9" fill="#c9ced1" opacity="0.7"/><rect x="230" y="644" width="76.72" height="6" rx="3" fill="#0a1516" opacity="0.45"/><rect x="230" y="656" width="47.03" height="5" rx="3" fill="#0a1516" opacity="0.2"/><rect x="1308" y="645" width="44" height="14" rx="7" fill="#26545a" opacity="0.16"/><rect x="192" y="678" width="1184" height="38" rx="5" fill="#ffffff"/><circle cx="212" cy="697" r="9" fill="#c9ced1" opacity="0.7"/><rect x="230" y="690" width="74.19" height="6" rx="3" fill="#0a1516" opacity="0.45"/><rect x="230" y="702" width="85.19" height="5" rx="3" fill="#0a1516" opacity="0.2"/><rect x="1308" y="691" width="44" height="14" rx="7" fill="#26545a" opacity="0.16"/><rect x="192" y="724" width="1184" height="38" rx="5" fill="#ffffff"/><circle cx="212" cy="743" r="9" fill="#c9ced1" opacity="0.7"/><rect x="230" y="736" width="148.8" height="6" rx="3" fill="#0a1516" opacity="0.45"/><rect x="230" y="748" width="88.67" height="5" rx="3" fill="#0a1516" opacity="0.2"/><rect x="1308" y="737" width="44" height="14" rx="7" fill="#26545a" opacity="0.16"/><rect x="192" y="770" width="1184" height="38" rx="5" fill="#ffffff"/><circle cx="212" cy="789" r="9" fill="#c9ced1" opacity="0.7"/><rect x="230" y="782" width="91.09" height="6" rx="3" fill="#0a1516" opacity="0.45"/><rect x="230" y="794" width="80.14" height="5" rx="3" fill="#0a1516" opacity="0.2"/><rect x="1308" y="783" width="44" height="14" rx="7" fill="#26545a" opacity="0.16"/><rect x="192" y="816" width="1184" height="38" rx="5" fill="#ffffff"/><circle cx="212" cy="835" r="9" fill="#c9ced1" opacity="0.7"/><rect x="230" y="828" width="117.38" height="6" rx="3" fill="#0a1516" opacity="0.45"/><rect x="230" y="840" width="56.94" height="5" rx="3" fill="#0a1516" opacity="0.2"/><rect x="1308" y="829" width="44" height="14" rx="7" fill="#26545a" opacity="0.16"/><rect x="192" y="862" width="1184" height="38" rx="5" fill="#ffffff"/><circle cx="212" cy="881" r="9" fill="#c9ced1" opacity="0.7"/><rect x="230" y="874" width="90.51" height="6" rx="3" fill="#0a1516" opacity="0.45"/><rect x="230" y="886" width="82.61" height="5" rx="3" fill="#0a1516" opacity="0.2"/><rect x="1308" y="875" width="44" height="14" rx="7" fill="#26545a" opacity="0.16"/><rect x="192" y="908" width="1184" height="38" rx="5" fill="#ffffff"/><circle cx="212" cy="927" r="9" fill="#c9ced1" opacity="0.7"/><rect x="230" y="920" width="85" height="6" rx="3" fill="#0a1516" opacity="0.45"/><rect x="230" y="932" width="64.77" height="5" rx="3" fill="#0a1516" opacity="0.2"/><rect x="1308" y="921" width="44" height="14" rx="7" fill="#26545a" opacity="0.16"/><rect x="192" y="954" width="1184" height="38" rx="5" fill="#ffffff"/><circle cx="212" cy="973" r="9" fill="#c9ced1" opacity="0.7"/><rect x="230" y="966" width="151.38" height="6" rx="3" fill="#0a1516" opacity="0.45"/><rect x="230" y="978" width="89.14" height="5" rx="3" fill="#0a1516" opacity="0.2"/><rect x="1308" y="967" width="44" height="14" rx="7" fill="#26545a" opacity="0.16"/></svg>