<svg xmlns="http://www.w3.org/2000/svg" viewBox="0 0 353 309" width="353" height="309" fill="none">
  <defs>
    <linearGradient id="g1" x1="0" y1="0" x2="1" y2="1">
      <stop offset="0" stop-color="#f7e3a8"/><stop offset="0.42" stop-color="#e0b45c"/>
      <stop offset="1" stop-color="#a9762a"/>
    </linearGradient>
    <radialGradient id="ball" cx="0.34" cy="0.28" r="0.82">
      <stop offset="0" stop-color="#ffeab4"/><stop offset="0.45" stop-color="#f0b24e"/>
      <stop offset="0.78" stop-color="#d6702f"/><stop offset="1" stop-color="#8c4a1c"/>
    </radialGradient>
    <linearGradient id="body" x1="0.1" y1="0" x2="0.9" y2="1">
      <stop offset="0" stop-color="#f3e6ae"/><stop offset="0.38" stop-color="#e7c368"/>
      <stop offset="0.72" stop-color="#caa043"/><stop offset="1" stop-color="#8f6522"/>
    </linearGradient>
    <linearGradient id="arrow" x1="0" y1="1" x2="1" y2="0">
      <stop offset="0" stop-color="#6b5417"/><stop offset="0.42" stop-color="#c9a44a"/>
      <stop offset="0.72" stop-color="#f2dc9c"/><stop offset="1" stop-color="#9c7c2c"/>
    </linearGradient>
    <linearGradient id="coin" x1="0" y1="0" x2="1" y2="1">
      <stop offset="0" stop-color="#ffeaa8"/><stop offset="0.5" stop-color="#e8b94f"/>
      <stop offset="1" stop-color="#a97c26"/>
    </linearGradient>
  </defs>

  <!-- storefront tile, top left -->
  <g transform="translate(18 28)">
    <rect x="0" y="14" width="76" height="74" rx="16" fill="url(#g1)"/>
    <rect x="4" y="18" width="68" height="66" rx="13" fill="#2b2113" opacity="0.16"/>
    <path d="M-2 14h80l-8-14H6z" fill="#f3dda2"/>
    <g>
      <rect x="-2" y="0" width="13" height="14" fill="#3a2d18"/>
      <rect x="24" y="0" width="13" height="14" fill="#3a2d18"/>
      <rect x="50" y="0" width="13" height="14" fill="#3a2d18"/>
    </g>
    <circle cx="38" cy="54" r="17" fill="#33270f"/>
    <path d="M38 44v11l7 4" stroke="#f6e3ab" stroke-width="4" stroke-linecap="round" stroke-linejoin="round" fill="none"/>
  </g>

  <!-- gold sphere -->
  <circle cx="196" cy="62" r="46" fill="url(#ball)"/>
  <ellipse cx="180" cy="44" rx="15" ry="11" fill="#fff4cf" opacity="0.55" transform="rotate(-24 180 44)"/>

  <!-- coin, top right -->
  <g transform="translate(262 42)">
    <circle cx="26" cy="26" r="26" fill="url(#coin)"/>
    <circle cx="26" cy="26" r="19" fill="#f6dc9b"/>
    <path d="M22 15h8v18a7 7 0 1 1-6-6.9V15z" fill="#3a2d13"/>
    <path d="M30 15c1.4 4 4 6.2 7.6 6.6v6.6c-3-0.2-5.6-1.2-7.6-2.8z" fill="#3a2d13"/>
  </g>

  <!-- body dome with star -->
  <path d="M104 244c0-42 33-76 74-76s74 34 74 76z" fill="url(#body)"/>
  <path d="M104 244c0-42 33-76 74-76-24 14-40 41-42 76z" fill="#fff3c8" opacity="0.38"/>
  <path d="M178.0 179.0L185.8 198.3L206.5 199.7L190.6 213.1L195.6 233.3L178.0 222.2L160.4 233.3L165.4 213.1L149.5 199.7L170.2 198.3Z" fill="#2f2b2f"/>

  <!-- upward trend arrow -->
  <path d="M196 279l43-46 27 22 33-40-19-16h64v62l-20-17-52 63-27-22-26 28z" fill="url(#arrow)"/>
  <path d="M196 279l43-46 8 6-38 44z" fill="#fbefc4" opacity="0.5"/>
</svg>
