<svg xmlns="http://www.w3.org/2000/svg" viewBox="0 0 152 152" width="152" height="152">
  <defs>
    <radialGradient id="sp" cx="0.36" cy="0.32" r="0.82">
      <stop offset="0" stop-color="#e3ae99"/><stop offset="0.52" stop-color="#c9836c"/>
      <stop offset="1" stop-color="#a2604b"/>
    </radialGradient>
  </defs>
  <rect width="152" height="152" fill="#fdfbfa"/>
  <ellipse cx="76" cy="124" rx="30" ry="6" fill="#00000012"/>
  <path d="M69 50q7-12 14 0c13 21 27 33 27 47a34 34 0 0 1-68 0c0-14 14-26 27-47z" fill="url(#sp)"/>
  <path d="M69 50q7-12 14 0c3 5 6 9 9 13-5 37-22 55-38 60a34 34 0 0 1-12-26c0-14 14-26 27-47z" fill="#ffffff1f"/>
  <ellipse cx="62" cy="80" rx="8" ry="13" fill="#ffffff33" transform="rotate(-20 62 80)"/>
</svg>
