<svg preserveAspectRatio="none" overflow="visible" style="display: block;" width="16" height="16" viewBox="0 0 16 16" fill="none" xmlns="http://www.w3.org/2000/svg">
<g id="menu/trophy_deafult_unselect">
<path id="Union" d="M4.66724 8.99072H3.95337C2.3226 8.99072 1.00049 7.6683 1.00024 6.0376V4.06006C1.00036 3.50787 1.44803 3.06006 2.00024 3.06006H4.66724V8.99072ZM14.0002 3.06006C14.5523 3.06025 15.0001 3.50799 15.0002 4.06006V6.0376C15 7.66819 13.6777 8.99053 12.0471 8.99072H11.3333V3.06006H14.0002ZM2.33325 6.0376C2.33344 6.71238 2.7464 7.29139 3.33325 7.53467V4.39404H2.33325V6.0376ZM12.6672 4.39404V7.53467C13.254 7.29133 13.6671 6.7123 13.6672 6.0376V4.39404H12.6672Z" fill="#009995"/>
<path id="Union_2" d="M11.717 1.7467C12.2413 1.74688 12.6669 2.17174 12.6672 2.69592V6.94983C12.6672 9.30083 10.9279 11.2445 8.66626 11.568V12.9196H10.6663V14.2535H5.33325V12.9196H7.33325V11.568C5.07181 11.2443 3.33325 9.30072 3.33325 6.94983V2.69592C3.33357 2.17163 3.75908 1.7467 4.28345 1.7467H11.717ZM4.66724 6.94983C4.66724 8.79078 6.15929 10.2828 8.00024 10.2828C9.84104 10.2827 11.3333 8.79067 11.3333 6.94983V3.07971H4.66724V6.94983Z" fill="#171718"/>
</g>
</svg>
