<svg preserveAspectRatio="none" overflow="visible" style="display: block;" width="30" height="30" viewBox="0 0 30 30" fill="none" xmlns="http://www.w3.org/2000/svg">
<g id="ICO30/tools-filled">
<path id="ICO30/tools-filled_2" d="M25.4108 9.59061C26.2014 10.3988 26.1956 11.7087 25.3981 12.51L22.576 15.3451L18.2445 15.4046L7.698 26L4 22.2194L14.5426 11.6278L14.8004 7.49373L17.6886 4.59208C18.4792 3.79781 19.7501 3.80337 20.5337 4.60452L21.5602 5.65397L19.796 7.50052C19.3695 7.93516 19.2946 8.50723 19.3261 8.90683C19.3584 9.31546 19.5179 9.79732 19.8726 10.1525C20.0169 10.297 20.1796 10.4162 20.3522 10.5087C20.7064 10.7151 21.1143 10.7881 21.5055 10.7293C21.8441 10.6854 22.1927 10.5396 22.4742 10.2582L22.4753 10.2571L24.2978 8.44048L24.4511 8.60945L25.4108 9.59061Z" fill="#0E6476"/>
</g>
</svg>
